<svg xmlns="http://www.w3.org/2000/svg" viewBox="0 0 1200 630" width="1200" height="630">
<defs>
<linearGradient id="gbg" x1="0" y1="0" x2="1200" y2="630" gradientUnits="userSpaceOnUse"><stop offset="0%" stop-color="#060E1C"/><stop offset="100%" stop-color="#0D1E38"/></linearGradient>
<linearGradient id="gg" x1="0" y1="0" x2="600" y2="0" gradientUnits="userSpaceOnUse"><stop offset="0%" stop-color="#8A6020"/><stop offset="40%" stop-color="#F5DC80"/><stop offset="60%" stop-color="#F5DC80"/><stop offset="100%" stop-color="#8A6020"/></linearGradient>
</defs>
<rect width="1200" height="630" fill="url(#gbg)"/>
<path d="M0 0 L140 0 L0 140 Z" fill="#B8924A" opacity="0.07"/>
<path d="M1200 630 L1060 630 L1200 490 Z" fill="#B8924A" opacity="0.07"/>
<rect x="0" y="0" width="1200" height="5" fill="url(#gg)"/>
<rect x="0" y="625" width="1200" height="5" fill="url(#gg)"/>
<rect x="0" y="0" width="5" height="630" fill="url(#gg)"/>
<rect x="1195" y="0" width="5" height="630" fill="url(#gg)"/>
<rect x="20" y="20" width="1160" height="590" rx="3" fill="none" stroke="#B8924A" stroke-width="0.6" stroke-opacity="0.2"/>
<circle cx="96" cy="100" r="44" fill="#B8924A" opacity="0.13"/>
<circle cx="96" cy="100" r="43" fill="none" stroke="#F5DC80" stroke-width="1" stroke-opacity="0.4"/>
<text x="96" y="118" text-anchor="middle" font-family="Georgia,serif" font-size="48" font-weight="700" fill="#F5DC80">$</text>
<text x="160" y="115" font-family="Georgia,serif" font-size="58" font-weight="700" fill="#FFFFFF">1099</text>
<text x="362" y="115" font-family="Georgia,serif" font-size="58" font-weight="700" fill="#F5DC80">Deductions</text>
<text x="785" y="115" font-family="Georgia,serif" font-size="40" font-weight="400" fill="#4A6A8A">.com</text>
<rect x="46" y="138" width="700" height="1.5" fill="url(#gg)" opacity="0.6"/>
<text x="46" y="176" font-family="Arial,sans-serif" font-size="23" fill="#90B4D0">Free Tax Write-Off Finder for Gig Workers - IRS 2026</text>
<circle cx="76" cy="232" r="16" fill="#14532d" opacity="0.7"/>
<path d="M67 232 L73 240 L86 220" fill="none" stroke="#4ade80" stroke-width="3" stroke-linecap="round" stroke-linejoin="round"/>
<text x="108" y="242" font-family="Arial,sans-serif" font-size="26" font-weight="700" fill="#FFFFFF">Schedule C write-offs for every gig job</text>
<circle cx="76" cy="292" r="16" fill="#14532d" opacity="0.7"/>
<path d="M67 292 L73 300 L86 280" fill="none" stroke="#4ade80" stroke-width="3" stroke-linecap="round" stroke-linejoin="round"/>
<text x="108" y="302" font-family="Arial,sans-serif" font-size="26" font-weight="700" fill="#FFFFFF">17 job types - DoorDash, Uber, Etsy, OnlyFans</text>
<circle cx="76" cy="352" r="16" fill="#14532d" opacity="0.7"/>
<path d="M67 352 L73 360 L86 340" fill="none" stroke="#4ade80" stroke-width="3" stroke-linecap="round" stroke-linejoin="round"/>
<text x="108" y="362" font-family="Arial,sans-serif" font-size="26" font-weight="700" fill="#FFFFFF">No signup, no data stored, 100% private</text>
<circle cx="76" cy="412" r="16" fill="#14532d" opacity="0.7"/>
<path d="M67 412 L73 420 L86 400" fill="none" stroke="#4ade80" stroke-width="3" stroke-linecap="round" stroke-linejoin="round"/>
<text x="108" y="422" font-family="Arial,sans-serif" font-size="26" font-weight="700" fill="#FFFFFF">Save up to $12,000+ per year in taxes</text>
<circle cx="76" cy="472" r="16" fill="#14532d" opacity="0.7"/>
<path d="M67 472 L73 480 L86 460" fill="none" stroke="#4ade80" stroke-width="3" stroke-linecap="round" stroke-linejoin="round"/>
<text x="108" y="482" font-family="Arial,sans-serif" font-size="26" font-weight="700" fill="#FFFFFF">IRS-compliant checklists, updated 2026</text>
<rect x="46" y="508" width="680" height="1" fill="#B8924A" opacity="0.25"/>
<rect x="46" y="526" width="360" height="52" rx="10" fill="none" stroke="#B8924A" stroke-width="1.2" stroke-opacity="0.5"/>
<text x="226" y="560" text-anchor="middle" font-family="Georgia,serif" font-size="24" font-weight="700" fill="#F5DC80">1099deductions.com</text>
<rect x="424" y="526" width="130" height="52" rx="10" fill="#14532d" opacity="0.5"/>
<text x="489" y="560" text-anchor="middle" font-family="Arial,sans-serif" font-size="20" font-weight="700" fill="#4ade80">FREE</text>
<circle cx="990" cy="335" r="168" fill="none" stroke="#B8924A" stroke-width="1.5" stroke-opacity="0.3"/>
<circle cx="990" cy="335" r="158" fill="#B8924A" opacity="0.05"/>
<circle cx="990" cy="335" r="142" fill="none" stroke="#F5DC80" stroke-width="1" stroke-dasharray="5 5" stroke-opacity="0.25"/>
<text x="908" y="198" font-family="Arial,sans-serif" font-size="13" font-weight="700" fill="#C9A84C" letter-spacing="2" transform="rotate(-22 908 198)">TRUSTED</text>
<text x="980" y="178" font-family="Arial,sans-serif" font-size="13" font-weight="700" fill="#C9A84C" letter-spacing="2">IRS 2026</text>
<text x="1040" y="196" font-family="Arial,sans-serif" font-size="13" font-weight="700" fill="#C9A84C" letter-spacing="2" transform="rotate(22 1060 196)">VERIFIED</text>
<text x="990" y="308" text-anchor="middle" font-family="Georgia,serif" font-size="80" font-weight="700" fill="#F5DC80">$</text>
<text x="990" y="345" text-anchor="middle" font-family="Arial,sans-serif" font-size="14" font-weight="700" fill="#C9A84C" letter-spacing="5">TAX SAVINGS</text>
<text x="990" y="400" text-anchor="middle" font-family="Georgia,serif" font-size="44" font-weight="700" fill="#F5DC80">$12,000+</text>
<text x="990" y="430" text-anchor="middle" font-family="Arial,sans-serif" font-size="16" fill="#7A96B8">avg annual deductions</text>
<text x="990" y="460" text-anchor="middle" font-family="Arial,sans-serif" font-size="13" fill="#C9A84C" letter-spacing="4" opacity="0.8">FREE - PRIVATE - INSTANT</text>
<text x="842" y="340" text-anchor="middle" font-family="serif" font-size="16" fill="#C9A84C" opacity="0.6">*</text>
<text x="1138" y="340" text-anchor="middle" font-family="serif" font-size="16" fill="#C9A84C" opacity="0.6">*</text>
</svg>